G75*
G70*
%OFA0B0*%
%FSLAX24Y24*%
%IPPOS*%
%LPD*%
%AMOC8*
5,1,8,0,0,1.08239X$1,22.5*
%
%ADD10R,0.0395X0.0167*%
%ADD11R,0.0592X0.0671*%
%ADD12R,0.0671X0.0592*%
%ADD13R,0.0710X0.0631*%
%ADD14R,0.0198X0.0237*%
%ADD15R,0.0237X0.0198*%
%ADD16R,0.0631X0.0710*%
%ADD17C,0.0820*%
%ADD18OC8,0.0820*%
%ADD19R,0.0552X0.0552*%
%ADD20R,0.0552X0.0552*%
%ADD21R,0.0592X0.0710*%
%ADD22R,0.0710X0.0592*%
%ADD23R,0.0592X0.0690*%
%ADD24C,0.0780*%
%ADD25C,0.0860*%
%ADD26R,0.0476X0.0476*%
%ADD27R,0.0437X0.0437*%
%ADD28C,0.1740*%
D10*
X019579Y016468D03*
X019579Y016626D03*
X019579Y016783D03*
X019579Y016941D03*
X019579Y017098D03*
X020296Y017098D03*
X020296Y016941D03*
X020296Y016783D03*
X020296Y016626D03*
X020296Y016468D03*
D11*
X021313Y018283D03*
X022062Y018283D03*
X022563Y013633D03*
X023312Y013633D03*
D12*
X022038Y015909D03*
X022038Y016657D03*
X018038Y018259D03*
X018038Y019007D03*
X019148Y020845D03*
X019148Y021515D03*
X021238Y021999D03*
X021238Y022668D03*
X016987Y016618D03*
X016987Y015870D03*
D13*
X021083Y014750D03*
X022264Y014750D03*
D14*
X020180Y018143D03*
X019983Y018143D03*
X019786Y018143D03*
X019589Y018143D03*
X019392Y018143D03*
X019195Y018143D03*
X019195Y019924D03*
X019392Y019924D03*
X019589Y019924D03*
X019786Y019924D03*
X019983Y019924D03*
X020180Y019924D03*
D15*
X020381Y019722D03*
X020381Y019525D03*
X020381Y019329D03*
X020381Y019132D03*
X020381Y018935D03*
X020381Y018738D03*
X020381Y018541D03*
X020381Y018344D03*
X018994Y018344D03*
X018994Y018541D03*
X018994Y018738D03*
X018994Y018935D03*
X018994Y019132D03*
X018994Y019329D03*
X018994Y019525D03*
X018994Y019722D03*
D16*
X022438Y021743D03*
X022438Y022924D03*
D17*
X022488Y010803D02*
X022488Y010063D01*
X023488Y010063D02*
X023488Y010803D01*
X024488Y010803D02*
X024488Y010063D01*
X021488Y010063D02*
X021488Y010803D01*
X007588Y013513D02*
X007588Y014253D01*
X006588Y014253D02*
X006588Y013513D01*
X005588Y013513D02*
X005588Y014253D01*
X004588Y014253D02*
X004588Y013513D01*
X003588Y013513D02*
X003588Y014253D01*
X004138Y016813D02*
X004138Y017553D01*
X005138Y017553D02*
X005138Y016813D01*
X006138Y016813D02*
X006138Y017553D01*
X006138Y019313D02*
X006138Y020053D01*
X005138Y020053D02*
X005138Y019313D01*
X004138Y019313D02*
X004138Y020053D01*
X004138Y021313D02*
X004138Y022053D01*
X005138Y022053D02*
X005138Y021313D01*
X006138Y021313D02*
X006138Y022053D01*
X006138Y023313D02*
X006138Y024053D01*
X005138Y024053D02*
X005138Y023313D01*
X004138Y023313D02*
X004138Y024053D01*
X002008Y020683D02*
X001268Y020683D01*
X001268Y019683D02*
X002008Y019683D01*
D18*
X011188Y020933D03*
X012188Y020933D03*
X013188Y020933D03*
X014188Y020933D03*
X015188Y020933D03*
X015188Y021933D03*
X014188Y021933D03*
X013188Y021933D03*
X012188Y021933D03*
X011188Y021933D03*
X025588Y020033D03*
X026588Y020033D03*
X026588Y019033D03*
X026588Y018033D03*
X026588Y017033D03*
X026588Y016033D03*
X025588Y016033D03*
X025588Y017033D03*
X025588Y018033D03*
X025588Y019033D03*
D19*
G36*
X026136Y005433D02*
X025746Y005823D01*
X026136Y006213D01*
X026526Y005823D01*
X026136Y005433D01*
G37*
G36*
X025551Y004849D02*
X025161Y005239D01*
X025551Y005629D01*
X025941Y005239D01*
X025551Y004849D01*
G37*
D20*
X023299Y020132D03*
X023299Y020959D03*
D21*
G36*
X026467Y006711D02*
X026048Y007130D01*
X026549Y007631D01*
X026968Y007212D01*
X026467Y006711D01*
G37*
G36*
X026996Y006182D02*
X026577Y006601D01*
X027078Y007102D01*
X027497Y006683D01*
X026996Y006182D01*
G37*
X009812Y003533D03*
X009063Y003533D03*
D22*
X011288Y003609D03*
X011288Y004357D03*
X024332Y022833D03*
X024332Y023581D03*
D23*
X008253Y011324D03*
X006482Y011324D03*
X003854Y011306D03*
X002082Y011306D03*
X002082Y008176D03*
X003854Y008176D03*
X006482Y008194D03*
X008253Y008194D03*
D24*
X021038Y006963D03*
X021038Y004404D03*
D25*
X007428Y004073D02*
X007428Y003293D01*
X005458Y003293D02*
X005458Y004073D01*
D26*
X010838Y011683D03*
X016788Y011083D03*
X018138Y015213D03*
X018813Y015608D03*
X018138Y016183D03*
X018062Y017322D03*
X020855Y015763D03*
X023595Y014833D03*
X021538Y019283D03*
X021135Y021014D03*
X020184Y021010D03*
X018238Y022433D03*
X010888Y017183D03*
X009638Y018433D03*
X007938Y016933D03*
X003138Y015183D03*
X009026Y024625D03*
X027538Y008183D03*
X024288Y007633D03*
X018938Y003283D03*
D27*
X017448Y012749D03*
X015620Y017747D03*
X015925Y018382D03*
X016395Y019274D03*
X016395Y023584D03*
D28*
X001638Y004183D03*
X001638Y023683D03*
X028138Y023683D03*
X028138Y004183D03*
M02*
