%
M48
M72
T01C0.0197
T02C0.0236
T03C0.0354
T04C0.0400
T05C0.0440
T06C0.0520
T07C0.1260
%
T01
X17448Y12749
X15620Y17747
X15925Y18382
X16395Y19274
X16395Y23584
T02
X18238Y22433
X20184Y21010
X21135Y21014
X21538Y19283
X18062Y17322
X18138Y16183
X18813Y15608
X18138Y15213
X20855Y15763
X23595Y14833
X16788Y11083
X10838Y11683
X7938Y16933
X9638Y18433
X10888Y17183
X3138Y15183
X9026Y24625
X27538Y8183
X24288Y7633
X18938Y3283
T03
X21038Y4404
X21038Y6963
T04
X25588Y16033
X26588Y16033
X26588Y17033
X26588Y18033
X26588Y19033
X26588Y20033
X25588Y20033
X25588Y19033
X25588Y18033
X25588Y17033
X15188Y20933
X15188Y21933
X14188Y21933
X13188Y21933
X13188Y20933
X14188Y20933
X12188Y20933
X11188Y20933
X11188Y21933
X12188Y21933
T05
X6138Y21683
X5138Y21683
X4138Y21683
X4138Y19683
X5138Y19683
X6138Y19683
X6138Y17183
X5138Y17183
X4138Y17183
X1638Y19683
X1638Y20683
X4138Y23683
X5138Y23683
X6138Y23683
X6588Y13883
X7588Y13883
X5588Y13883
X4588Y13883
X3588Y13883
X21488Y10433
X22488Y10433
X23488Y10433
X24488Y10433
T06
X7428Y3683
X5458Y3683
T07
X1638Y4183
X1638Y23683
X28138Y23683
X28138Y4183
M30
