G75*
G70*
%OFA0B0*%
%FSLAX24Y24*%
%IPPOS*%
%LPD*%
%AMOC8*
5,1,8,0,0,1.08239X$1,22.5*
%
%ADD10C,0.0050*%
%ADD11C,0.0010*%
%ADD12C,0.0040*%
%ADD13C,0.0030*%
%ADD14C,0.0020*%
%ADD15C,0.0080*%
%ADD16R,0.0079X0.0079*%
%ADD17R,0.0079X0.0079*%
D10*
X006871Y014628D02*
X007172Y014628D01*
X007022Y014628D02*
X007022Y015079D01*
X007172Y014929D01*
X007332Y015004D02*
X007332Y014854D01*
X007407Y014778D01*
X007632Y014778D01*
X007632Y014628D02*
X007632Y015079D01*
X007407Y015079D01*
X007332Y015004D01*
X007792Y015079D02*
X007942Y015079D01*
X007867Y015079D02*
X007867Y014703D01*
X007942Y014628D01*
X008017Y014628D01*
X008093Y014703D01*
X004964Y015813D02*
X004889Y015738D01*
X004814Y015738D01*
X004738Y015813D01*
X004738Y016189D01*
X004663Y016189D02*
X004814Y016189D01*
X004503Y016189D02*
X004503Y015738D01*
X004503Y015888D02*
X004278Y015888D01*
X004203Y015964D01*
X004203Y016114D01*
X004278Y016189D01*
X004503Y016189D01*
X004043Y016114D02*
X004043Y016039D01*
X003968Y015964D01*
X003818Y015964D01*
X003743Y015888D01*
X003743Y015813D01*
X003818Y015738D01*
X003968Y015738D01*
X004043Y015813D01*
X004043Y015888D01*
X003968Y015964D01*
X003818Y015964D02*
X003743Y016039D01*
X003743Y016114D01*
X003818Y016189D01*
X003968Y016189D01*
X004043Y016114D01*
X004043Y018238D02*
X004043Y018313D01*
X003743Y018614D01*
X003743Y018689D01*
X004043Y018689D01*
X004203Y018614D02*
X004203Y018464D01*
X004278Y018388D01*
X004503Y018388D01*
X004503Y018238D02*
X004503Y018689D01*
X004278Y018689D01*
X004203Y018614D01*
X004663Y018689D02*
X004814Y018689D01*
X004738Y018689D02*
X004738Y018313D01*
X004814Y018238D01*
X004889Y018238D01*
X004964Y018313D01*
X004889Y020238D02*
X004814Y020238D01*
X004738Y020313D01*
X004738Y020689D01*
X004663Y020689D02*
X004814Y020689D01*
X004503Y020689D02*
X004278Y020689D01*
X004203Y020614D01*
X004203Y020464D01*
X004278Y020388D01*
X004503Y020388D01*
X004503Y020238D02*
X004503Y020689D01*
X004889Y020238D02*
X004964Y020313D01*
X004043Y020313D02*
X003968Y020238D01*
X003818Y020238D01*
X003743Y020313D01*
X003743Y020388D01*
X003818Y020464D01*
X004043Y020464D01*
X004043Y020313D01*
X004043Y020464D02*
X003893Y020614D01*
X003743Y020689D01*
X003818Y022238D02*
X003968Y022238D01*
X004043Y022313D01*
X004043Y022464D02*
X003893Y022539D01*
X003818Y022539D01*
X003743Y022464D01*
X003743Y022313D01*
X003818Y022238D01*
X004043Y022464D02*
X004043Y022689D01*
X003743Y022689D01*
X004203Y022614D02*
X004203Y022464D01*
X004278Y022388D01*
X004503Y022388D01*
X004503Y022238D02*
X004503Y022689D01*
X004278Y022689D01*
X004203Y022614D01*
X004663Y022689D02*
X004814Y022689D01*
X004738Y022689D02*
X004738Y022313D01*
X004814Y022238D01*
X004889Y022238D01*
X004964Y022313D01*
X018900Y020018D02*
X018900Y018049D01*
X020475Y018049D01*
X020475Y020018D01*
X018900Y020018D01*
X020672Y017655D02*
X020674Y017682D01*
X020680Y017709D01*
X020689Y017735D01*
X020702Y017759D01*
X020718Y017782D01*
X020737Y017801D01*
X020759Y017818D01*
X020783Y017832D01*
X020808Y017842D01*
X020835Y017849D01*
X020862Y017852D01*
X020890Y017851D01*
X020917Y017846D01*
X020943Y017838D01*
X020967Y017826D01*
X020990Y017810D01*
X021011Y017792D01*
X021028Y017771D01*
X021043Y017747D01*
X021054Y017722D01*
X021062Y017696D01*
X021066Y017669D01*
X021066Y017641D01*
X021062Y017614D01*
X021054Y017588D01*
X021043Y017563D01*
X021028Y017539D01*
X021011Y017518D01*
X020990Y017500D01*
X020968Y017484D01*
X020943Y017472D01*
X020917Y017464D01*
X020890Y017459D01*
X020862Y017458D01*
X020835Y017461D01*
X020808Y017468D01*
X020783Y017478D01*
X020759Y017492D01*
X020737Y017509D01*
X020718Y017528D01*
X020702Y017551D01*
X020689Y017575D01*
X020680Y017601D01*
X020674Y017628D01*
X020672Y017655D01*
X020331Y017216D02*
X019544Y017216D01*
X019544Y016350D02*
X020331Y016350D01*
X019642Y016330D02*
X019649Y016316D01*
X019653Y016301D01*
X019654Y016285D01*
X019651Y016269D01*
X019644Y016255D01*
X019635Y016242D01*
X019622Y016232D01*
X019608Y016225D01*
X019593Y016221D01*
X019577Y016220D01*
X019561Y016223D01*
X019547Y016230D01*
X019534Y016239D01*
X019524Y016252D01*
X019517Y016266D01*
X019513Y016281D01*
X019512Y016297D01*
X019515Y016313D01*
X019522Y016327D01*
X019531Y016340D01*
X019544Y016350D01*
X023847Y011879D02*
X024072Y011654D01*
X023771Y011654D01*
X023847Y011879D02*
X023847Y011428D01*
X024232Y011654D02*
X024307Y011578D01*
X024532Y011578D01*
X024532Y011428D02*
X024532Y011879D01*
X024307Y011879D01*
X024232Y011804D01*
X024232Y011654D01*
X024692Y011879D02*
X024842Y011879D01*
X024767Y011879D02*
X024767Y011503D01*
X024842Y011428D01*
X024917Y011428D01*
X024993Y011503D01*
D11*
X020464Y016128D02*
X020464Y016278D01*
X020414Y016228D01*
X020364Y016278D01*
X020364Y016128D01*
X020316Y016128D02*
X020316Y016228D01*
X020266Y016278D01*
X020216Y016228D01*
X020216Y016128D01*
X020169Y016153D02*
X020144Y016128D01*
X020094Y016128D01*
X020069Y016153D01*
X020069Y016203D01*
X020119Y016203D01*
X020169Y016253D02*
X020169Y016153D01*
X020216Y016203D02*
X020316Y016203D01*
X020169Y016253D02*
X020144Y016278D01*
X020094Y016278D01*
X020069Y016253D01*
X020022Y016253D02*
X019997Y016278D01*
X019947Y016278D01*
X019922Y016253D01*
X019922Y016228D01*
X019947Y016203D01*
X019922Y016178D01*
X019922Y016153D01*
X019947Y016128D01*
X019997Y016128D01*
X020022Y016153D01*
X019972Y016203D02*
X019947Y016203D01*
X019874Y016228D02*
X019824Y016278D01*
X019824Y016128D01*
X019874Y016128D02*
X019774Y016128D01*
X019727Y016128D02*
X019627Y016128D01*
X019677Y016128D02*
X019677Y016278D01*
X019727Y016228D01*
X019580Y016253D02*
X019580Y016153D01*
X019480Y016253D01*
X019480Y016153D01*
X019505Y016128D01*
X019555Y016128D01*
X019580Y016153D01*
X019580Y016253D02*
X019555Y016278D01*
X019505Y016278D01*
X019480Y016253D01*
D12*
X009050Y004337D02*
X009050Y004030D01*
X009127Y003953D01*
X009280Y003953D01*
X009357Y004030D01*
X009280Y004184D02*
X009050Y004184D01*
X009050Y004337D02*
X009127Y004414D01*
X009280Y004414D01*
X009357Y004337D01*
X009357Y004260D01*
X009280Y004184D01*
X009511Y004184D02*
X009587Y004107D01*
X009818Y004107D01*
X009818Y003953D02*
X009818Y004414D01*
X009587Y004414D01*
X009511Y004337D01*
X009511Y004184D01*
X009664Y004107D02*
X009511Y003953D01*
X010408Y003943D02*
X010408Y004250D01*
X010408Y004096D02*
X010868Y004096D01*
X010714Y003943D01*
X010408Y003789D02*
X010408Y003483D01*
X010408Y003636D02*
X010868Y003636D01*
X010714Y003483D01*
X010638Y003329D02*
X010561Y003252D01*
X010561Y003022D01*
X010408Y003022D02*
X010868Y003022D01*
X010868Y003252D01*
X010791Y003329D01*
X010638Y003329D01*
X010561Y003176D02*
X010408Y003329D01*
X004949Y008838D02*
X004872Y008761D01*
X004795Y008761D01*
X004718Y008838D01*
X004718Y008992D01*
X004642Y009068D01*
X004565Y009068D01*
X004488Y008992D01*
X004488Y008838D01*
X004565Y008761D01*
X004949Y008838D02*
X004949Y008992D01*
X004872Y009068D01*
X004872Y009222D02*
X004949Y009299D01*
X004949Y009452D01*
X004872Y009529D01*
X004795Y009529D01*
X004488Y009222D01*
X004488Y009529D01*
X005387Y009935D02*
X005464Y009858D01*
X005387Y009935D02*
X005387Y010088D01*
X005464Y010165D01*
X005541Y010165D01*
X005618Y010088D01*
X005618Y009935D01*
X005694Y009858D01*
X005771Y009858D01*
X005848Y009935D01*
X005848Y010088D01*
X005771Y010165D01*
X005771Y010319D02*
X005848Y010395D01*
X005848Y010549D01*
X005771Y010626D01*
X005694Y010626D01*
X005618Y010549D01*
X005541Y010626D01*
X005464Y010626D01*
X005387Y010549D01*
X005387Y010395D01*
X005464Y010319D01*
X005618Y010472D02*
X005618Y010549D01*
X017507Y015841D02*
X017507Y015994D01*
X017584Y016071D01*
X017507Y016224D02*
X017507Y016531D01*
X017507Y016378D02*
X017968Y016378D01*
X017814Y016224D01*
X017891Y016071D02*
X017968Y015994D01*
X017968Y015841D01*
X017891Y015764D01*
X017584Y015764D01*
X017507Y015841D01*
X017584Y016685D02*
X017507Y016761D01*
X017507Y016915D01*
X017584Y016992D01*
X017738Y016992D01*
X017814Y016915D01*
X017814Y016838D01*
X017738Y016685D01*
X017968Y016685D01*
X017968Y016992D01*
X018558Y018403D02*
X019018Y018403D01*
X019018Y018634D01*
X018941Y018710D01*
X018788Y018710D01*
X018711Y018634D01*
X018711Y018403D01*
X018711Y018557D02*
X018558Y018710D01*
X018558Y018864D02*
X018558Y019171D01*
X018558Y019017D02*
X019018Y019017D01*
X018864Y018864D01*
X018941Y019324D02*
X019018Y019401D01*
X019018Y019554D01*
X018941Y019631D01*
X018864Y019631D01*
X018711Y019478D01*
X018634Y019478D02*
X018558Y019478D01*
X019645Y020850D02*
X019568Y020927D01*
X019568Y021080D01*
X019645Y021157D01*
X019568Y021311D02*
X019568Y021617D01*
X019568Y021464D02*
X020029Y021464D01*
X019875Y021311D01*
X019952Y021157D02*
X020029Y021080D01*
X020029Y020927D01*
X019952Y020850D01*
X019645Y020850D01*
X020358Y021399D02*
X020358Y021552D01*
X020434Y021629D01*
X020358Y021783D02*
X020358Y022089D01*
X020358Y021936D02*
X020818Y021936D01*
X020664Y021783D01*
X020741Y021629D02*
X020818Y021552D01*
X020818Y021399D01*
X020741Y021322D01*
X020434Y021322D01*
X020358Y021399D01*
X019952Y021771D02*
X019875Y021771D01*
X019799Y021848D01*
X019799Y022078D01*
X019952Y022078D02*
X020029Y022001D01*
X020029Y021848D01*
X019952Y021771D01*
X019952Y022078D02*
X019645Y022078D01*
X019568Y022001D01*
X019568Y021848D01*
X019645Y021771D01*
X020358Y022320D02*
X020434Y022243D01*
X020511Y022243D01*
X020588Y022320D01*
X020588Y022473D01*
X020511Y022550D01*
X020434Y022550D01*
X020358Y022473D01*
X020358Y022320D01*
X020588Y022320D02*
X020664Y022243D01*
X020741Y022243D01*
X020818Y022320D01*
X020818Y022473D01*
X020741Y022550D01*
X020664Y022550D01*
X020588Y022473D01*
X022319Y020836D02*
X022396Y020912D01*
X022703Y020912D01*
X022779Y020836D01*
X022779Y020682D01*
X022703Y020605D01*
X022626Y020605D01*
X022549Y020682D01*
X022549Y020912D01*
X022319Y020836D02*
X022319Y020682D01*
X022396Y020605D01*
X022396Y020452D02*
X022319Y020375D01*
X022319Y020145D01*
X022779Y020145D01*
X022779Y020375D01*
X022703Y020452D01*
X022396Y020452D01*
X022319Y019992D02*
X022319Y019685D01*
X022779Y019685D01*
X022779Y019992D01*
X022549Y019838D02*
X022549Y019685D01*
X022319Y019531D02*
X022319Y019224D01*
X022779Y019224D01*
X022799Y017764D02*
X022568Y017764D01*
X022492Y017687D01*
X022492Y017534D01*
X022568Y017457D01*
X022799Y017457D01*
X022799Y017303D02*
X022799Y017764D01*
X022338Y017687D02*
X022262Y017764D01*
X022108Y017764D01*
X022031Y017687D01*
X022031Y017610D01*
X022338Y017303D01*
X022031Y017303D01*
X021724Y017303D02*
X021724Y017380D01*
X021724Y017457D02*
X021571Y017610D01*
X021571Y017687D01*
X021648Y017764D01*
X021801Y017764D01*
X021878Y017687D01*
X022492Y017303D02*
X022645Y017457D01*
X021518Y016650D02*
X021441Y016496D01*
X021288Y016343D01*
X021288Y016573D01*
X021211Y016650D01*
X021134Y016650D01*
X021058Y016573D01*
X021058Y016420D01*
X021134Y016343D01*
X021288Y016343D01*
X021058Y016189D02*
X021058Y015883D01*
X021058Y016036D02*
X021518Y016036D01*
X021364Y015883D01*
X021441Y015729D02*
X021518Y015652D01*
X021518Y015499D01*
X021441Y015422D01*
X021134Y015422D01*
X021058Y015499D01*
X021058Y015652D01*
X021134Y015729D01*
X022267Y014614D02*
X022190Y014537D01*
X022190Y014460D01*
X022267Y014384D01*
X022190Y014307D01*
X022190Y014230D01*
X022267Y014153D01*
X022420Y014153D01*
X022497Y014230D01*
X022650Y014153D02*
X022957Y014153D01*
X022804Y014153D02*
X022804Y014614D01*
X022957Y014460D01*
X023111Y014537D02*
X023187Y014614D01*
X023341Y014614D01*
X023418Y014537D01*
X023418Y014230D01*
X023341Y014153D01*
X023187Y014153D01*
X023111Y014230D01*
X022497Y014537D02*
X022420Y014614D01*
X022267Y014614D01*
X022267Y014384D02*
X022343Y014384D01*
X026233Y006744D02*
X026179Y006690D01*
X026179Y006581D01*
X026071Y006581D01*
X026016Y006527D01*
X026016Y006419D01*
X026125Y006310D01*
X026233Y006310D01*
X026288Y006147D02*
X026505Y005930D01*
X026613Y005822D02*
X026830Y005822D01*
X026776Y005876D02*
X026939Y005713D01*
X026830Y005605D02*
X027156Y005930D01*
X026993Y006093D01*
X026885Y006093D01*
X026776Y005984D01*
X026776Y005876D01*
X026722Y006147D02*
X026722Y006364D01*
X026396Y006039D01*
X026450Y006527D02*
X026450Y006636D01*
X026342Y006744D01*
X026233Y006744D01*
X026179Y006581D02*
X026233Y006527D01*
X025815Y006238D02*
X025598Y006021D01*
X025490Y005912D02*
X025273Y005695D01*
X025164Y005587D02*
X025001Y005424D01*
X024893Y005424D01*
X024676Y005641D01*
X024676Y005750D01*
X024839Y005912D01*
X025164Y005587D01*
X025218Y005967D02*
X025327Y006075D01*
X025164Y006238D02*
X025490Y005912D01*
X025815Y006238D02*
X025490Y006563D01*
X025164Y006238D02*
X024947Y006021D01*
X024567Y005533D02*
X024622Y005478D01*
X024622Y005370D01*
X024513Y005261D01*
X024513Y005153D01*
X024567Y005099D01*
X024676Y005099D01*
X024784Y005207D01*
X024784Y005316D01*
X024730Y005370D01*
X024622Y005370D01*
X024513Y005261D02*
X024405Y005261D01*
X024350Y005316D01*
X024350Y005424D01*
X024459Y005533D01*
X024567Y005533D01*
X023913Y022246D02*
X023452Y022246D01*
X023606Y022246D02*
X023606Y022476D01*
X023682Y022553D01*
X023836Y022553D01*
X023913Y022476D01*
X023913Y022246D01*
X023606Y022399D02*
X023452Y022553D01*
X023452Y022706D02*
X023452Y023013D01*
X023452Y022860D02*
X023913Y022860D01*
X023759Y022706D01*
X023682Y023167D02*
X023682Y023474D01*
X023452Y023397D02*
X023913Y023397D01*
X023682Y023167D01*
D13*
X023207Y022640D02*
X023145Y022702D01*
X022898Y022455D01*
X022836Y022517D01*
X022836Y022640D01*
X022898Y022702D01*
X023145Y022702D01*
X023207Y022640D02*
X023207Y022517D01*
X023145Y022455D01*
X022898Y022455D01*
X022836Y022334D02*
X022836Y022087D01*
X023083Y022334D01*
X023145Y022334D01*
X023207Y022272D01*
X023207Y022148D01*
X023145Y022087D01*
X023145Y021965D02*
X023207Y021904D01*
X023207Y021780D01*
X023145Y021718D01*
X022898Y021718D01*
X022836Y021780D01*
X022836Y021904D01*
X022898Y021965D01*
X022227Y015520D02*
X022288Y015458D01*
X022288Y015211D01*
X022227Y015149D01*
X022103Y015149D01*
X022042Y015211D01*
X021920Y015149D02*
X021673Y015149D01*
X021552Y015149D02*
X021552Y015211D01*
X021305Y015458D01*
X021305Y015520D01*
X021552Y015520D01*
X021797Y015520D02*
X021920Y015396D01*
X022042Y015458D02*
X022103Y015520D01*
X022227Y015520D01*
X021797Y015520D02*
X021797Y015149D01*
D14*
X021134Y018256D02*
X020879Y018256D01*
X020879Y018426D01*
X020921Y018510D02*
X020879Y018552D01*
X020879Y018638D01*
X020921Y018680D01*
X020964Y018680D01*
X021007Y018638D01*
X021007Y018552D01*
X021049Y018510D01*
X021092Y018510D01*
X021134Y018552D01*
X021134Y018638D01*
X021092Y018680D01*
X021134Y018763D02*
X021049Y018849D01*
X021134Y018934D01*
X020879Y018934D01*
X020921Y019017D02*
X020879Y019060D01*
X020879Y019145D01*
X020921Y019188D01*
X020964Y019188D01*
X021007Y019145D01*
X021007Y019102D01*
X021007Y019145D02*
X021049Y019188D01*
X021092Y019188D01*
X021134Y019145D01*
X021134Y019060D01*
X021092Y019017D01*
X021092Y019271D02*
X021134Y019314D01*
X021134Y019399D01*
X021092Y019442D01*
X021049Y019442D01*
X021007Y019399D01*
X020964Y019442D01*
X020921Y019442D01*
X020879Y019399D01*
X020879Y019314D01*
X020921Y019271D01*
X021007Y019356D02*
X021007Y019399D01*
X021092Y019525D02*
X021134Y019567D01*
X021134Y019653D01*
X021092Y019695D01*
X020921Y019525D01*
X020879Y019567D01*
X020879Y019653D01*
X020921Y019695D01*
X021092Y019695D01*
X021134Y019778D02*
X021134Y019906D01*
X021092Y019949D01*
X020921Y019949D01*
X020879Y019906D01*
X020879Y019778D01*
X021134Y019778D01*
X021134Y020032D02*
X020879Y020032D01*
X020879Y020203D01*
X020921Y020286D02*
X020879Y020329D01*
X020879Y020414D01*
X020921Y020457D01*
X021092Y020457D02*
X021134Y020414D01*
X021134Y020329D01*
X021092Y020286D01*
X020921Y020286D01*
X020921Y019525D02*
X021092Y019525D01*
X021134Y018763D02*
X020879Y018763D01*
D15*
X024316Y018899D02*
X024316Y017167D01*
X024906Y017167D01*
X024906Y018899D01*
X024316Y018899D01*
X024316Y022010D01*
X027859Y022010D01*
X027859Y014057D01*
X027820Y014057D02*
X024316Y014057D01*
X024316Y017167D01*
X024995Y016283D02*
X024995Y015783D01*
X024988Y010683D02*
X024988Y010183D01*
X020988Y010183D02*
X020988Y010683D01*
X008588Y010842D02*
X008588Y008676D01*
X007761Y008539D02*
X006974Y008539D01*
X006147Y008676D02*
X006147Y010842D01*
X006974Y010980D02*
X007761Y010980D01*
X006678Y009759D02*
X006680Y009811D01*
X006686Y009863D01*
X006696Y009914D01*
X006709Y009964D01*
X006727Y010014D01*
X006748Y010061D01*
X006772Y010107D01*
X006801Y010151D01*
X006832Y010193D01*
X006866Y010232D01*
X006903Y010269D01*
X006943Y010302D01*
X006986Y010333D01*
X007030Y010360D01*
X007076Y010384D01*
X007125Y010404D01*
X007174Y010420D01*
X007225Y010433D01*
X007276Y010442D01*
X007328Y010447D01*
X007380Y010448D01*
X007432Y010445D01*
X007484Y010438D01*
X007535Y010427D01*
X007585Y010413D01*
X007634Y010394D01*
X007681Y010372D01*
X007726Y010347D01*
X007770Y010318D01*
X007811Y010286D01*
X007850Y010251D01*
X007885Y010213D01*
X007918Y010172D01*
X007948Y010130D01*
X007974Y010085D01*
X007997Y010038D01*
X008016Y009989D01*
X008032Y009939D01*
X008044Y009889D01*
X008052Y009837D01*
X008056Y009785D01*
X008056Y009733D01*
X008052Y009681D01*
X008044Y009629D01*
X008032Y009579D01*
X008016Y009529D01*
X007997Y009480D01*
X007974Y009433D01*
X007948Y009388D01*
X007918Y009346D01*
X007885Y009305D01*
X007850Y009267D01*
X007811Y009232D01*
X007770Y009200D01*
X007726Y009171D01*
X007681Y009146D01*
X007634Y009124D01*
X007585Y009105D01*
X007535Y009091D01*
X007484Y009080D01*
X007432Y009073D01*
X007380Y009070D01*
X007328Y009071D01*
X007276Y009076D01*
X007225Y009085D01*
X007174Y009098D01*
X007125Y009114D01*
X007076Y009134D01*
X007030Y009158D01*
X006986Y009185D01*
X006943Y009216D01*
X006903Y009249D01*
X006866Y009286D01*
X006832Y009325D01*
X006801Y009367D01*
X006772Y009411D01*
X006748Y009457D01*
X006727Y009504D01*
X006709Y009554D01*
X006696Y009604D01*
X006686Y009655D01*
X006680Y009707D01*
X006678Y009759D01*
X004189Y010824D02*
X004189Y008659D01*
X003362Y008521D02*
X002574Y008521D01*
X001748Y008659D02*
X001748Y010824D01*
X002574Y010962D02*
X003362Y010962D01*
X002279Y009741D02*
X002281Y009793D01*
X002287Y009845D01*
X002297Y009896D01*
X002310Y009946D01*
X002328Y009996D01*
X002349Y010043D01*
X002373Y010089D01*
X002402Y010133D01*
X002433Y010175D01*
X002467Y010214D01*
X002504Y010251D01*
X002544Y010284D01*
X002587Y010315D01*
X002631Y010342D01*
X002677Y010366D01*
X002726Y010386D01*
X002775Y010402D01*
X002826Y010415D01*
X002877Y010424D01*
X002929Y010429D01*
X002981Y010430D01*
X003033Y010427D01*
X003085Y010420D01*
X003136Y010409D01*
X003186Y010395D01*
X003235Y010376D01*
X003282Y010354D01*
X003327Y010329D01*
X003371Y010300D01*
X003412Y010268D01*
X003451Y010233D01*
X003486Y010195D01*
X003519Y010154D01*
X003549Y010112D01*
X003575Y010067D01*
X003598Y010020D01*
X003617Y009971D01*
X003633Y009921D01*
X003645Y009871D01*
X003653Y009819D01*
X003657Y009767D01*
X003657Y009715D01*
X003653Y009663D01*
X003645Y009611D01*
X003633Y009561D01*
X003617Y009511D01*
X003598Y009462D01*
X003575Y009415D01*
X003549Y009370D01*
X003519Y009328D01*
X003486Y009287D01*
X003451Y009249D01*
X003412Y009214D01*
X003371Y009182D01*
X003327Y009153D01*
X003282Y009128D01*
X003235Y009106D01*
X003186Y009087D01*
X003136Y009073D01*
X003085Y009062D01*
X003033Y009055D01*
X002981Y009052D01*
X002929Y009053D01*
X002877Y009058D01*
X002826Y009067D01*
X002775Y009080D01*
X002726Y009096D01*
X002677Y009116D01*
X002631Y009140D01*
X002587Y009167D01*
X002544Y009198D01*
X002504Y009231D01*
X002467Y009268D01*
X002433Y009307D01*
X002402Y009349D01*
X002373Y009393D01*
X002349Y009439D01*
X002328Y009486D01*
X002310Y009536D01*
X002297Y009586D01*
X002287Y009637D01*
X002281Y009689D01*
X002279Y009741D01*
X003088Y013633D02*
X003088Y014133D01*
X003638Y016933D02*
X003638Y017433D01*
X003638Y019433D02*
X003638Y019933D01*
X003638Y021433D02*
X003638Y021933D01*
X003638Y023433D02*
X003638Y023933D01*
X006638Y023933D02*
X006638Y023433D01*
X006638Y021933D02*
X006638Y021433D01*
X006638Y019933D02*
X006638Y019433D01*
X006638Y017433D02*
X006638Y016933D01*
X008088Y014133D02*
X008088Y013633D01*
D16*
G36*
X025816Y005448D02*
X025761Y005503D01*
X025816Y005558D01*
X025871Y005503D01*
X025816Y005448D01*
G37*
D17*
X023299Y020506D03*
M02*
